<?xml version="1.0" standalone="no"?>
<!DOCTYPE svg PUBLIC "-//W3C//DTD SVG 20010904//EN"
 "http://www.w3.org/TR/2001/REC-SVG-20010904/DTD/svg10.dtd">
<svg version="1.0" xmlns="http://www.w3.org/2000/svg"
 width="183.000000pt" height="275.000000pt" viewBox="0 0 183.000000 275.000000"
 preserveAspectRatio="xMidYMid meet">

<g transform="translate(0.000000,275.000000) scale(0.100000,-0.100000)"
fill="#000000" stroke="none">
<path d="M0 1898 c1 -585 4 -847 11 -835 6 11 22 17 43 17 19 0 39 7 46 15 10
12 10 15 -3 15 -23 0 -29 16 -7 17 10 1 24 -4 30 -12 8 -10 1 -21 -33 -49 -24
-20 -48 -36 -54 -36 -21 0 -33 -54 -33 -145 0 -66 4 -95 13 -98 9 -3 9 -7 0
-18 -9 -11 -12 -114 -13 -392 l0 -377 915 0 915 0 0 497 0 497 -25 35 c-25 38
-39 132 -20 141 6 3 18 -11 27 -30 17 -34 18 -22 18 383 0 261 -4 425 -10 437
-7 13 -7 21 0 25 6 4 10 143 10 386 l0 379 -915 0 -915 0 0 -852z m370 633
c-3 -33 -10 -64 -14 -68 -5 -4 -6 0 -3 10 4 10 7 41 7 68 0 27 4 49 8 49 4 0
5 -27 2 -59z m83 39 c-3 -11 0 -20 6 -20 6 0 16 9 23 20 7 11 17 20 22 20 5 0
-1 -12 -15 -26 l-24 -26 33 -30 c19 -16 32 -32 29 -34 -3 -3 -21 9 -40 26
l-36 31 -3 -28 c-2 -16 -6 -4 -8 30 -4 39 -1 57 7 57 6 0 9 -9 6 -20z m200 -4
c-6 -27 13 -44 30 -27 9 9 8 16 -1 31 -14 24 0 27 18 4 11 -12 10 -18 -3 -32
-16 -15 -15 -18 5 -39 12 -13 18 -26 15 -29 -4 -4 -16 5 -28 19 -24 32 -43 35
-36 7 3 -11 1 -20 -4 -20 -5 0 -9 25 -9 55 0 30 4 55 9 55 4 0 6 -11 4 -24z
m125 13 c-21 -12 -24 -69 -6 -87 18 -18 46 -14 58 7 15 29 12 57 -7 77 -13 13
-14 16 -3 12 8 -2 21 -16 29 -30 13 -23 13 -29 -3 -52 -9 -15 -24 -30 -32 -33
-24 -9 -63 14 -70 42 -8 34 10 75 33 75 17 -1 17 -1 1 -11z m137 -36 c11 -26
22 -51 23 -55 2 -4 0 -8 -5 -8 -9 0 -53 83 -53 100 0 24 17 6 35 -37z m32 25
l10 -23 7 23 c4 12 12 22 17 22 5 0 2 -14 -6 -30 -10 -20 -13 -36 -7 -46 7
-12 13 -5 26 30 10 25 22 46 27 46 5 0 -3 -25 -18 -55 -27 -55 -43 -69 -43
-39 0 9 -5 12 -11 8 -7 -4 -10 -1 -7 7 3 8 -1 29 -8 47 -15 36 -3 45 13 10z
m138 -33 c0 -71 -12 -71 -17 0 -2 32 1 55 7 55 6 0 10 -25 10 -55z m100 0 c0
-30 -3 -55 -7 -55 -5 0 -8 25 -8 55 0 30 3 55 8 55 4 0 7 -25 7 -55z m132 -25
c3 0 3 18 0 40 -3 22 -1 40 4 40 5 0 9 -25 9 -55 0 -30 -3 -55 -7 -55 -4 0
-24 17 -45 37 l-38 37 0 -36 c0 -20 -5 -40 -12 -44 -8 -5 -9 -2 -5 10 4 10 7
39 7 64 l1 47 40 -42 c22 -24 42 -43 46 -43z m91 73 c-22 -5 -35 -50 -21 -72
5 -9 21 -22 34 -28 13 -7 18 -13 11 -13 -17 0 -55 20 -64 34 -21 30 7 87 41
85 13 -1 13 -2 -1 -6z m52 -3 c0 -5 -7 -7 -15 -4 -8 4 -15 8 -15 10 0 2 7 4
15 4 8 0 15 -4 15 -10z m10 -80 c0 -11 -4 -20 -8 -20 -4 0 -8 9 -9 20 -1 11 2
20 8 20 5 0 9 -9 9 -20z m-330 -14 c0 -3 -4 -8 -10 -11 -5 -3 -10 -1 -10 4 0
6 5 11 10 11 6 0 10 -2 10 -4z m-290 -86 c0 -5 -4 -10 -10 -10 -5 0 -10 5 -10
10 0 6 5 10 10 10 6 0 10 -4 10 -10z m-130 -4 c0 -3 -4 -8 -10 -11 -5 -3 -10
-1 -10 4 0 6 5 11 10 11 6 0 10 -2 10 -4z m305 -41 c19 -18 25 -35 25 -70 0
-50 -10 -59 -65 -59 l-30 0 3 -53 c3 -46 7 -53 25 -54 21 0 21 -1 2 -8 -41
-16 -75 -21 -75 -11 0 5 7 10 15 10 12 0 13 12 9 68 -11 121 -19 165 -32 170
-8 2 -10 -2 -5 -14 4 -12 3 -15 -5 -10 -20 12 -13 35 11 40 12 3 31 7 42 9 42
9 57 6 80 -18z m-714 1 c-13 -16 6 -209 21 -200 4 3 8 1 8 -4 0 -5 -13 -12
-30 -14 -28 -4 -43 6 -20 14 7 2 8 19 4 47 -7 41 -8 43 -37 37 -16 -3 -40 -6
-53 -6 -19 0 -24 -5 -24 -24 0 -48 12 -86 28 -86 26 0 0 -17 -35 -23 -32 -6
-46 6 -19 16 11 4 11 17 0 79 -7 40 -13 88 -13 106 -1 22 -6 32 -17 32 -26 0
-6 17 26 22 31 5 50 -6 27 -15 -8 -3 -11 -19 -9 -47 l4 -42 42 6 c22 3 47 5
54 5 8 1 12 17 12 46 0 29 -4 45 -12 46 -16 1 21 17 41 18 10 1 11 -2 2 -13z
m218 -25 c10 -6 12 -20 8 -46 -9 -55 34 -133 56 -102 6 8 7 8 4 -3 -8 -31 -39
-15 -64 33 -14 26 -29 47 -34 47 -9 0 -14 -35 -11 -72 1 -10 -5 -18 -13 -18
-12 0 -13 14 -8 82 5 60 3 79 -5 74 -7 -4 -12 -2 -12 3 0 13 59 14 79 2z m751
-13 c0 -17 -3 -19 -9 -10 -5 8 -17 12 -27 10 -15 -3 -17 -12 -15 -63 1 -33 7
-63 13 -66 5 -4 -1 -8 -14 -11 -23 -4 -23 -3 -20 64 4 66 4 68 -20 68 -13 0
-29 -5 -36 -12 -9 -9 -12 -8 -12 8 0 16 6 19 39 17 32 -1 61 3 99 16 1 1 2 -9
2 -21z m460 12 c0 -5 -4 -10 -10 -10 -5 0 -10 5 -10 10 0 6 5 10 10 10 6 0 10
-4 10 -10z m-1339 -53 c12 -23 28 -49 36 -58 12 -14 11 -17 -6 -22 -15 -3 -21
1 -23 17 -4 29 -42 29 -46 -1 -2 -13 -7 -23 -11 -23 -4 0 -3 31 2 70 5 38 14
67 19 64 4 -3 18 -24 29 -47z m1229 12 c7 -11 9 -31 6 -43 -8 -32 50 -111 70
-95 11 9 14 8 14 -5 0 -41 -80 6 -96 57 -6 19 -44 24 -44 5 0 -7 4 -30 9 -50
8 -33 6 -38 -8 -38 -13 0 -17 7 -14 28 6 43 -12 137 -25 135 -7 -2 -12 1 -12
6 0 10 26 17 67 20 13 0 27 -7 33 -20z m-958 0 c17 -9 19 -17 14 -49 -5 -31
-1 -44 26 -81 17 -24 33 -38 36 -31 2 6 8 12 13 12 4 0 6 -7 3 -15 -12 -30
-44 -16 -75 33 -16 26 -35 47 -42 47 -16 0 -21 -49 -7 -75 10 -18 8 -20 -16
-20 -19 0 -24 3 -18 13 5 6 9 19 8 27 -1 8 -2 41 -3 74 -1 47 -4 57 -16 52 -8
-3 -15 -1 -15 4 0 5 15 11 33 13 17 2 33 5 35 5 2 1 13 -3 24 -9z m747 -24 c0
-11 -3 -14 -6 -7 -2 6 -16 12 -29 12 -23 0 -24 -3 -24 -68 0 -40 5 -73 12 -80
9 -9 4 -12 -22 -11 -19 0 -29 3 -22 6 13 5 17 90 6 131 -8 28 -54 32 -54 5 0
-15 -2 -16 -10 -3 -19 30 -10 35 70 35 74 0 80 -2 79 -20z m-261 -35 c3 -57
-23 -96 -59 -85 -11 4 -28 1 -37 -7 -15 -12 -16 -11 -4 4 9 11 10 18 2 23 -14
9 -13 58 3 79 8 10 31 22 53 26 21 4 39 8 39 9 0 0 1 -21 3 -49z m-383 31 c-6
-10 14 -61 24 -61 11 0 41 57 34 64 -3 3 3 6 14 6 32 0 32 -9 -2 -46 -36 -39
-57 -120 -35 -134 19 -11 -2 -18 -30 -9 -14 4 -20 7 -14 8 18 2 23 82 7 121
-7 19 -21 41 -30 48 -15 10 -14 12 11 12 15 0 25 -4 21 -9z m741 -1 c9 0 13
-10 13 -27 -2 -25 -2 -25 -6 -5 -6 29 -46 27 -51 -2 -3 -14 0 -17 12 -13 11 5
16 1 16 -13 0 -13 -5 -18 -15 -14 -10 4 -15 0 -15 -15 0 -14 6 -21 20 -21 11
0 20 5 20 10 0 6 4 10 9 10 5 0 7 -9 4 -21 -4 -15 -11 -19 -27 -15 -11 3 -28
6 -37 6 -14 0 -15 8 -7 57 7 43 6 59 -4 66 -8 5 -1 7 21 3 18 -3 40 -6 47 -6z
m-826 -190 c0 -5 -4 -10 -10 -10 -5 0 -10 5 -10 10 0 6 5 10 10 10 6 0 10 -4
10 -10z m801 -3 c-1 -12 -15 -9 -19 4 -3 6 1 10 8 8 6 -3 11 -8 11 -12z
m-1331 -27 c0 -5 -4 -10 -10 -10 -5 0 -10 5 -10 10 0 6 5 10 10 10 6 0 10 -4
10 -10z m1220 0 c0 -5 -2 -10 -4 -10 -3 0 -8 5 -11 10 -3 6 -1 10 4 10 6 0 11
-4 11 -10z m420 -25 c0 -8 -2 -15 -4 -15 -2 0 -6 7 -10 15 -3 8 -1 15 4 15 6
0 10 -7 10 -15z m-900 -29 c0 -21 -6 -36 -15 -40 -23 -8 -32 24 -12 39 10 7
17 17 17 24 0 6 2 11 5 11 3 0 5 -15 5 -34z m77 -18 c-2 -13 -4 -5 -4 17 -1
22 1 32 4 23 2 -10 2 -28 0 -40z m583 27 c7 -8 19 -15 26 -15 8 0 14 -4 14
-10 0 -5 7 -10 15 -10 8 0 15 -4 15 -10 0 -5 6 -10 14 -10 17 0 40 -26 28 -34
-5 -3 -26 0 -47 6 -35 11 -39 10 -58 -12 -11 -14 -23 -24 -28 -23 -5 2 -6 -4
-2 -13 4 -11 8 -12 13 -4 4 6 26 16 49 21 34 7 45 6 57 -6 9 -8 26 -15 39 -15
13 0 26 -4 30 -10 3 -5 13 -6 23 -3 15 6 15 5 3 -10 -7 -9 -10 -17 -5 -17 5 0
1 -5 -8 -11 -10 -5 -18 -22 -18 -36 0 -26 -1 -26 -15 -7 -14 19 -14 18 -15 -3
0 -17 -9 -24 -36 -32 -19 -5 -41 -8 -49 -5 -7 3 -16 1 -20 -5 -3 -6 -11 -11
-17 -11 -6 0 -8 3 -5 7 11 10 -13 32 -28 27 -9 -4 -12 0 -8 14 2 10 -3 26 -11
35 -9 8 -16 20 -16 26 0 6 -16 11 -36 11 -20 0 -33 4 -29 10 3 5 19 7 35 3 30
-6 65 12 55 27 -3 5 -1 11 5 15 5 3 10 12 10 18 0 8 -3 8 -9 -2 -14 -22 -19 0
-14 57 6 54 19 66 43 37z m-764 -30 c1 -8 -5 -15 -13 -15 -12 0 -13 3 -4 13 6
8 9 17 6 20 -3 4 -2 5 2 2 4 -3 8 -12 9 -20z m21 -7 c-3 -7 -5 -2 -5 12 0 14
2 19 5 13 2 -7 2 -19 0 -25z m31 1 c-3 -8 -7 -3 -11 10 -4 17 -3 21 5 13 5 -5
8 -16 6 -23z m99 -6 c-3 -10 -5 -4 -5 12 0 17 2 24 5 18 2 -7 2 -21 0 -30z
m61 6 c-3 -8 -7 -3 -11 10 -4 17 -3 21 5 13 5 -5 8 -16 6 -23z m26 6 c3 -8 1
-15 -4 -15 -6 0 -10 7 -10 15 0 8 2 15 4 15 2 0 6 -7 10 -15z m236 5 c0 -5 -4
-10 -10 -10 -5 0 -10 5 -10 10 0 6 5 10 10 10 6 0 10 -4 10 -10z m-680 -95 c0
-19 -2 -35 -4 -35 -2 0 -6 16 -8 35 -2 19 0 35 4 35 4 0 8 -16 8 -35z m77 -17
c-2 -13 -4 -5 -4 17 -1 22 1 32 4 23 2 -10 2 -28 0 -40z m229 22 c8 0 14 -9
13 -22 -1 -17 -2 -19 -6 -5 -2 9 -8 17 -13 17 -5 0 -6 -7 -3 -17 4 -11 3 -14
-5 -9 -7 4 -11 22 -11 39 1 18 3 24 6 15 2 -10 11 -18 19 -18z m-354 -9 c2
-17 1 -28 -4 -25 -8 5 -12 54 -4 54 2 0 6 -13 8 -29z m23 20 c3 -5 1 -12 -5
-16 -5 -3 -10 1 -10 9 0 18 6 21 15 7z m546 -44 c-8 -8 -14 -8 -23 2 -11 10
-10 11 5 6 9 -4 17 -3 17 3 0 5 -7 13 -16 16 -8 3 -12 11 -9 17 5 6 13 2 22
-11 11 -16 12 -25 4 -33z m-379 28 c3 3 11 -1 17 -9 8 -10 9 -16 1 -21 -6 -4
-10 -3 -9 2 4 22 -3 24 -21 8 -15 -14 -23 -16 -32 -7 -16 16 9 47 27 32 6 -5
14 -8 17 -5z m76 -11 c4 -18 3 -18 -13 1 -16 20 -16 20 -11 -4 3 -17 2 -21 -6
-13 -14 14 -2 45 15 40 6 -3 14 -13 15 -24z m26 -10 c-4 -41 -14 -41 -14 0 0
20 4 35 9 32 4 -3 7 -17 5 -32z m313 -1 c-3 -10 -5 -4 -5 12 0 17 2 24 5 18 2
-7 2 -21 0 -30z m49 -2 c-22 -21 -46 0 -26 24 10 12 16 13 27 3 12 -10 12 -13
-1 -27z m-589 -3 c-3 -7 -5 -2 -5 12 0 14 2 19 5 13 2 -7 2 -19 0 -25z m30 10
c-3 -8 -6 -5 -6 6 -1 11 2 17 5 13 3 -3 4 -12 1 -19z m220 0 c-3 -8 -6 -5 -6
6 -1 11 2 17 5 13 3 -3 4 -12 1 -19z m90 15 c-14 -4 -16 -8 -6 -19 7 -9 8 -14
1 -14 -15 0 -25 18 -17 30 3 6 14 9 23 9 15 -1 15 -2 -1 -6z m44 -2 c-7 -5
-10 -14 -7 -20 4 -6 2 -11 -3 -11 -6 0 -11 9 -11 20 0 12 7 20 18 20 13 0 14
-2 3 -9z m56 -14 c-2 -6 -9 -12 -15 -13 -7 -1 -8 0 -2 3 8 3 7 9 -1 19 -10 12
-9 13 5 8 9 -4 15 -11 13 -17z m180 -9 c-3 -7 -5 -2 -5 12 0 14 2 19 5 13 2
-7 2 -19 0 -25z m67 -1 c7 -6 6 -7 -4 -4 -8 2 -16 12 -17 23 -2 13 -1 15 4 4
3 -8 11 -19 17 -23z m97 -39 c-7 -19 -15 -22 -43 -20 -34 3 -88 -27 -88 -50 0
-14 -26 -35 -65 -52 -39 -17 -63 -59 -45 -81 10 -12 9 -16 -6 -21 -72 -23
-110 -43 -119 -61 -5 -12 -19 -26 -32 -32 -13 -6 -23 -15 -23 -21 0 -5 -7 -10
-15 -10 -8 0 -15 -3 -15 -8 0 -4 -10 -13 -21 -21 -16 -9 -24 -10 -29 -1 -9 14
-58 -49 -70 -88 -9 -33 19 -133 46 -163 10 -11 30 -19 51 -19 18 0 33 -5 33
-10 0 -6 -3 -9 -7 -8 -5 1 -23 -12 -42 -29 -29 -27 -32 -34 -21 -47 7 -9 19
-16 26 -16 12 0 12 -6 -1 -36 -8 -20 -15 -45 -15 -55 0 -11 -3 -19 -7 -19 -21
1 -37 22 -43 61 -4 24 -11 53 -14 64 -7 18 -6 18 4 3 6 -10 15 -18 21 -18 5 0
-7 26 -27 57 -31 49 -35 63 -31 100 3 32 0 48 -11 60 -15 15 -21 62 -12 93 4
11 -4 16 -27 18 -35 3 -43 21 -18 42 8 7 15 18 15 24 0 24 21 35 46 24 13 -6
21 -14 19 -19 -3 -4 0 -11 6 -15 8 -4 9 -3 5 4 -4 7 -1 12 9 12 9 0 13 4 10
10 -3 5 0 7 8 4 8 -3 17 2 20 10 4 9 14 16 24 16 26 1 58 26 41 33 -10 4 -9 6
2 7 8 1 23 3 32 5 11 2 15 -3 13 -15 -3 -13 1 -17 11 -13 8 3 13 12 10 20 -3
8 -2 11 4 8 5 -3 13 3 19 13 5 9 26 24 46 32 27 11 38 22 42 43 8 37 54 83 93
91 20 3 34 13 37 26 7 25 68 61 105 62 15 1 33 7 39 15 16 19 20 16 10 -9z
m-6 -48 c3 -6 -1 -7 -9 -4 -18 7 -21 14 -7 14 6 0 13 -4 16 -10z m93 -22 c5
-27 -34 -58 -72 -58 -35 0 -35 0 -24 31 16 46 89 66 96 27z m-1301 -12 c15 4
22 0 25 -14 4 -15 2 -19 -8 -15 -8 3 -11 9 -8 15 3 5 -4 4 -15 -4 -18 -11 -23
-11 -31 2 -14 22 -12 34 3 22 7 -6 22 -9 34 -6z m1333 -16 c0 -5 -4 -10 -10
-10 -5 0 -10 5 -10 10 0 6 5 10 10 10 6 0 10 -4 10 -10z m162 -20 c5 0 3 -7
-6 -15 -17 -17 -30 -20 -21 -5 3 6 1 10 -4 10 -6 0 -11 5 -11 11 0 6 7 8 16 5
9 -3 20 -6 26 -6z m-1519 -27 c-4 -11 -3 -14 5 -9 18 11 26 -21 13 -47 -6 -12
-10 -15 -10 -7 3 35 -1 40 -25 34 -30 -7 -41 9 -20 30 21 21 45 21 37 -1z
m-70 -55 c9 2 17 -2 17 -8 0 -6 -4 -8 -10 -5 -5 3 -10 2 -10 -4 0 -7 -8 -7
-26 -1 -14 6 -30 8 -35 4 -15 -9 -10 14 8 31 15 16 17 16 27 -2 6 -10 19 -17
29 -15z m69 -13 c-6 -35 -18 -40 -16 -7 2 32 2 32 13 32 4 0 6 -11 3 -25z m-4
-70 c-3 -3 -9 2 -12 12 -6 14 -5 15 5 6 7 -7 10 -15 7 -18z m997 -135 c3 -5
-3 -10 -15 -10 -12 0 -18 5 -15 10 3 6 10 10 15 10 5 0 12 -4 15 -10z m-35
-51 c9 -15 7 -19 -5 -19 -9 0 -13 5 -10 10 4 6 3 10 -2 9 -27 -5 -35 1 -23 16
14 17 25 12 40 -16z m-663 -61 c-3 -7 -5 -2 -5 12 0 14 2 19 5 13 2 -7 2 -19
0 -25z m607 16 c5 -14 4 -15 -9 -4 -17 14 -19 20 -6 20 5 0 12 -7 15 -16z
m-774 -44 c0 -5 -4 -10 -10 -10 -5 0 -10 5 -10 10 0 6 5 10 10 10 6 0 10 -4
10 -10z m276 -19 c-3 -5 -15 -7 -26 -4 -28 7 -25 13 6 13 14 0 23 -4 20 -9z
m90 -16 c10 -8 14 -15 8 -15 -5 0 -19 7 -30 15 -10 8 -14 15 -8 15 5 0 19 -7
30 -15z m-197 -32 c-13 -16 -25 -29 -25 -31 -1 -1 -4 7 -7 19 -3 11 -3 18 0
15 3 -3 12 1 20 9 26 27 37 16 12 -12z m-129 -33 c0 -5 -5 -10 -11 -10 -5 0
-7 5 -4 10 3 6 8 10 11 10 2 0 4 -4 4 -10z m-180 -10 c0 -5 -4 -10 -10 -10 -5
0 -10 5 -10 10 0 6 5 10 10 10 6 0 10 -4 10 -10z m262 -22 c-7 -7 -12 -19 -12
-28 0 -9 -6 -17 -14 -17 -8 0 -12 6 -8 15 7 19 35 50 41 45 3 -2 -1 -9 -7 -15z
m293 -106 c-6 -23 -8 -24 -16 -10 -6 10 -5 27 3 45 9 23 12 25 15 10 3 -10 2
-31 -2 -45z m-306 11 c0 -31 -2 -34 -9 -18 -12 28 -12 55 0 55 6 0 10 -17 9
-37z m1091 26 c63 2 135 -31 156 -72 l17 -32 -25 23 c-13 12 -30 22 -37 22 -7
0 -9 5 -5 12 5 7 3 8 -5 4 -7 -5 -20 -1 -31 9 -14 13 -34 16 -89 13 -39 -2
-71 -7 -71 -12 0 -5 -3 -6 -7 -3 -3 4 -12 2 -20 -4 -7 -6 -13 -8 -13 -5 0 10
-24 -15 -37 -38 -9 -16 -11 -16 -16 -2 -7 19 39 66 65 66 9 0 23 7 30 15 7 8
20 12 28 8 8 -3 35 -5 60 -4z m-823 -41 c-3 -8 -6 -5 -6 6 -1 11 2 17 5 13 3
-3 4 -12 1 -19z m-307 2 c0 -5 -4 -10 -10 -10 -5 0 -10 5 -10 10 0 6 5 10 10
10 6 0 10 -4 10 -10z m386 -5 c-3 -9 1 -18 9 -21 18 -7 20 -40 3 -50 -7 -5 -9
-2 -6 7 3 8 0 23 -8 33 -12 17 -13 17 -11 -7 1 -14 -2 -27 -8 -29 -15 -5 -13
51 3 57 7 3 10 9 7 15 -3 5 -1 10 5 10 7 0 9 -7 6 -15z m752 -12 c-10 -2 -26
-2 -35 0 -10 3 -2 5 17 5 19 0 27 -2 18 -5z m-868 -13 c8 -5 11 -10 5 -10 -5
0 -17 5 -25 10 -8 5 -10 10 -5 10 6 0 17 -5 25 -10z m56 -57 c-3 -3 -12 0 -21
7 -14 12 -14 15 2 33 18 19 18 19 21 -8 2 -15 1 -29 -2 -32z m-56 23 c8 -3 3
-4 -12 -2 -15 1 -25 -1 -22 -5 3 -5 0 -9 -5 -9 -12 0 -15 23 -4 33 3 4 11 3
17 -2 6 -4 18 -11 26 -15z m733 12 c-3 -5 -9 -22 -14 -36 -8 -25 -9 -24 -4 6
3 23 1 31 -7 26 -6 -4 -8 -3 -5 3 3 5 13 10 21 10 8 0 13 -4 9 -9z m-1138 -18
c3 -4 -9 -10 -25 -12 -27 -4 -37 1 -25 13 8 8 45 8 50 -1z m180 0 c-27 -12
-43 -12 -25 0 8 5 22 9 30 9 10 0 8 -3 -5 -9z m105 -85 c0 -5 -8 0 -18 12 -9
12 -30 25 -45 29 -26 6 -26 7 -10 20 16 12 21 9 45 -19 15 -18 27 -36 28 -42z
m120 65 c0 -5 -2 -10 -4 -10 -3 0 -8 5 -11 10 -3 6 -1 10 4 10 6 0 11 -4 11
-10z m93 4 c11 -11 -12 -43 -51 -69 -42 -28 -75 -33 -66 -10 5 12 2 13 -12 8
-18 -7 -18 -6 -1 11 9 9 17 20 17 23 0 3 -8 12 -17 20 -13 11 -10 10 9 -1 30
-18 63 -21 53 -6 -3 6 3 10 14 10 11 0 23 5 26 10 7 11 19 13 28 4z m628 -75
c-5 -19 -10 -26 -10 -17 -1 9 -7 18 -13 21 -9 3 -7 9 7 20 26 20 28 16 16 -24z
m35 -11 c5 -7 3 -8 -7 -3 -12 8 -12 6 0 -8 7 -9 17 -14 22 -11 5 3 8 -7 8 -23
-1 -16 -3 -21 -6 -11 -3 11 -10 15 -20 11 -11 -4 -14 -2 -9 5 4 7 2 12 -3 12
-6 0 -11 9 -11 20 0 22 15 27 26 8z m-1302 -73 c-10 -8 -23 -15 -28 -15 -6 0
-1 7 10 15 10 8 23 15 28 15 6 0 1 -7 -10 -15z m1378 -47 c-7 -7 -12 -8 -12
-2 0 14 12 26 19 19 2 -3 -1 -11 -7 -17z m-627 -28 c0 -28 -11 -40 -38 -40
-14 0 -17 5 -12 22 6 17 4 20 -10 14 -23 -9 -37 2 -22 18 6 8 28 13 47 12 31
-1 35 -4 35 -26z m536 -8 c-6 -2 -8 -8 -5 -14 4 -6 -2 -6 -14 1 -33 18 -38 33
-8 25 18 -4 26 -2 27 7 0 11 2 11 6 0 3 -8 1 -17 -6 -19z m-624 -18 c-3 -3
-12 -4 -19 -1 -8 3 -5 6 6 6 11 1 17 -2 13 -5z m53 -65 c0 -3 -12 -11 -27 -18
-23 -11 -25 -10 -14 3 10 12 8 16 -10 21 -15 5 -18 10 -9 15 12 7 60 -9 60
-21z m-205 -9 c3 -6 -1 -7 -9 -4 -18 7 -21 14 -7 14 6 0 13 -4 16 -10z m132
-6 c-3 -3 -12 -4 -19 -1 -8 3 -5 6 6 6 11 1 17 -2 13 -5z m-154 -44 c3 -11 1
-23 -4 -26 -8 -5 -13 9 -10 29 0 4 -6 7 -14 7 -16 0 -20 12 -8 23 9 9 30 -10
36 -33z m-335 -12 c26 -41 18 -51 -11 -15 -20 24 -25 26 -54 18 -18 -5 -33 -6
-33 -2 0 7 47 26 72 30 3 1 15 -14 26 -31z m11 -82 c12 -18 20 -44 20 -57 -1
-21 -2 -21 -6 -4 -3 11 -9 25 -15 30 -6 6 -7 3 -2 -10 6 -16 4 -18 -6 -8 -11
10 -24 83 -15 83 2 0 13 -15 24 -34z m711 -50 c0 -2 -7 -7 -16 -10 -8 -3 -12
-2 -9 4 6 10 25 14 25 6z m-187 -33 c-7 -2 -19 -2 -25 0 -7 3 -2 5 12 5 14 0
19 -2 13 -5z m110 -20 c-7 -2 -21 -2 -30 0 -10 3 -4 5 12 5 17 0 24 -2 18 -5z
m-98 -23 c-3 -5 -13 -10 -21 -10 -8 0 -12 -4 -9 -10 3 -5 1 -10 -4 -10 -21 0
-11 29 12 33 12 2 23 5 25 6 2 0 0 -3 -3 -9z m-471 -15 c-4 -8 -11 -12 -16 -9
-6 4 -5 10 3 15 19 12 19 11 13 -6z m124 -16 c48 -1 79 -3 70 -6 -10 -2 -18
-10 -18 -18 0 -19 -27 -39 -35 -25 -4 6 -13 9 -21 6 -7 -3 -16 -2 -18 3 -3 4
-18 7 -35 6 -21 -1 -28 2 -24 12 3 7 0 13 -6 13 -6 0 -11 -6 -11 -12 0 -9 -4
-8 -10 2 -14 22 -12 33 6 26 9 -3 55 -7 102 -7z"/>
<path d="M952 2351 c-8 -5 -11 -18 -8 -34 3 -15 8 -38 11 -52 4 -20 11 -25 35
-25 36 0 45 24 30 80 -8 31 -15 40 -33 40 -12 0 -28 -4 -35 -9z"/>
<path d="M490 2300 c0 -34 25 -42 33 -10 3 13 -1 24 -14 30 -17 9 -19 7 -19
-20z"/>
<path d="M367 2271 c-3 -14 0 -21 9 -21 16 0 18 9 5 28 -6 10 -10 9 -14 -7z"/>
<path d="M1574 2287 c-8 -23 13 -57 32 -50 21 8 14 57 -9 61 -9 2 -20 -3 -23
-11z"/>
<path d="M630 2250 c0 -25 4 -31 18 -28 11 2 17 12 17 28 0 16 -6 26 -17 28
-14 3 -18 -3 -18 -28z"/>
<path d="M1080 2241 c-13 -26 -13 -74 1 -66 5 4 8 12 6 18 -3 7 7 24 21 40 25
26 25 27 4 27 -12 0 -26 -9 -32 -19z"/>
<path d="M1126 2232 c-4 -7 -5 -16 -2 -19 3 -4 -4 -17 -16 -30 l-21 -23 22 0
c25 0 34 17 29 57 -2 20 -6 24 -12 15z"/>
<path d="M870 1970 c0 -5 5 -10 10 -10 6 0 10 5 10 10 0 6 -4 10 -10 10 -5 0
-10 -4 -10 -10z"/>
<path d="M695 1871 c-3 -5 -1 -12 5 -16 5 -3 10 1 10 9 0 18 -6 21 -15 7z"/>
<path d="M1175 1871 c-3 -5 -1 -12 5 -16 5 -3 10 1 10 9 0 18 -6 21 -15 7z"/>
<path d="M1423 1733 c-23 -9 -14 -33 11 -31 14 1 22 6 20 10 -3 4 0 8 5 8 6 0
11 5 11 10 0 10 -26 12 -47 3z"/>
<path d="M376 272 c-3 -5 9 -9 27 -9 26 -1 28 1 12 7 -27 11 -33 12 -39 2z"/>
</g>
</svg>
